<!-- icon666.com - MILLIONS vector ICONS FREE --><svg id="Capa_1" enable-background="new 0 0 512 512" viewBox="0 0 512 512" xmlns="http://www.w3.org/2000/svg"><g><path d="m437.02 74.98c-48.353-48.351-112.64-74.98-181.02-74.98s-132.667 26.629-181.02 74.98c-48.351 48.352-74.98 112.64-74.98 181.02s26.629 132.668 74.98 181.02c48.353 48.351 112.64 74.98 181.02 74.98s132.667-26.629 181.02-74.98c48.351-48.352 74.98-112.64 74.98-181.02s-26.629-132.668-74.98-181.02zm-351.078 329.864c-10.606-12.083-19.801-25.116-27.5-38.903h66.403zm-41.446-68.903c-9.515-25.208-14.496-52.19-14.496-79.941 0-22.031 3.145-43.576 9.196-64.136h433.607c6.052 20.56 9.197 42.105 9.197 64.136 0 27.751-4.981 54.733-14.496 79.941zm381.561-228.786c14.581 16.611 26.491 35.022 35.519 54.709h-90.228zm-329.863-10.961c42.686-42.686 99.439-66.194 159.806-66.194 55.339 0 107.632 19.768 148.844 55.942l-75.922 75.922h-278.497c11.062-24.125 26.442-46.343 45.769-65.67zm319.612 319.612c-42.686 42.686-99.439 66.194-159.806 66.194-55.34 0-107.633-19.768-148.845-55.943l60.115-60.116h286.288c-10.085 18.059-22.724 34.837-37.752 49.865z" fill="#362D6C"></path><path d="m290.912 223.539c-.008-.04-.016-.08-.023-.12-1.07-5.252-5.556-9.131-10.907-9.432-5.36-.309-10.244 3.049-11.896 8.147-.037.113-.071.228-.104.342l-14.35 50.337-14.881-50.438c-.035-.12-.072-.24-.112-.359-1.71-5.081-6.63-8.383-11.989-8.017-5.349.361-9.789 4.29-10.8 9.555-.007.036-.014.073-.021.109l-14.073 77.968c-.981 5.435 2.63 10.636 8.064 11.617 5.432.982 10.637-2.63 11.617-8.064l7.931-43.935 13.094 44.38c.034.118.071.235.11.352 1.618 4.822 6.111 8.051 11.193 8.051h.061c5.106-.026 9.597-3.307 11.173-8.164.037-.114.072-.229.105-.345l12.641-44.343 8.429 44.104c1.037 5.424 6.271 8.98 11.699 7.945 5.425-1.037 8.982-6.275 7.945-11.699z" fill="#362D6C"></path><path d="m177.245 254h-23.951c-5.522 0-10 4.477-10 10s4.478 10 10 10h12.796c-2.552 10.616-9.574 20.032-23.402 20.032-16.56 0-30.032-13.472-30.032-30.032s13.473-30.032 30.032-30.032c6.02 0 11.823 1.771 16.783 5.123 4.577 3.091 10.792 1.889 13.885-2.688 3.092-4.576 1.889-10.792-2.688-13.884-8.28-5.594-17.955-8.551-27.98-8.551-27.588 0-50.032 22.444-50.032 50.032s22.444 50.032 50.032 50.032c26.235 0 44.558-20.574 44.558-50.032-.001-5.523-4.478-10-10.001-10z" fill="#362D6C"></path><path d="m369.312 213.968c-27.588 0-50.032 22.444-50.032 50.032s22.444 50.032 50.032 50.032 50.032-22.444 50.032-50.032-22.444-50.032-50.032-50.032zm0 80.064c-16.56 0-30.032-13.472-30.032-30.032s13.473-30.032 30.032-30.032 30.033 13.472 30.033 30.032-13.473 30.032-30.033 30.032z" fill="#362D6C"></path></g></svg>