<svg id="Outline" viewBox="0 0 512 512" xmlns="http://www.w3.org/2000/svg"><path d="m433.117 392.062a58.566 58.566 0 0 0 -67.647-23.651l-15.025 5.008a37.173 37.173 0 0 0 -39.038-26.489l-53.319 4.847-7.6-5.064a63.788 63.788 0 0 0 -80.488 7.971l-13.313 13.316h-4.687a8 8 0 0 0 -8-8h-30.111l-14.311-7.155a7.994 7.994 0 0 0 -3.578-.845h-48v16h46.111l9.889 4.944v70.112l-9.889 4.944h-46.111v16h48a7.994 7.994 0 0 0 3.578-.845l14.311-7.155h30.111a8 8 0 0 0 8-8h47.016l95.044 23.761a8 8 0 0 0 3.437.1l168-32a8 8 0 0 0 6.348-9.427 48.506 48.506 0 0 0 -38.728-38.372zm-297.117 47.938h-16v-64h16zm209.217-48.093a7.981 7.981 0 0 0 1.312-.321l.1-.032 23.9-7.967a42.6 42.6 0 0 1 42.162 8.914l-76.021 15.205-27.389-10.273zm-48.985 63.905-94.292-23.573a7.977 7.977 0 0 0 -1.94-.239h-48v-48h8a8 8 0 0 0 5.657-2.343l15.66-15.657a47.789 47.789 0 0 1 60.3-5.971l9.945 6.63a8 8 0 0 0 5.163 1.311l56.131-5.1a21.28 21.28 0 0 1 22.08 14.436l-96.153 14.793 2.434 15.814 35.754-5.5 56.219 21.085a8 8 0 0 0 4.379.354l80.007-16a32.838 32.838 0 0 1 36.021 18z" fill="#362D6C" ></path><path d="m464 96a8 8 0 0 0 8-8v-32a8 8 0 0 0 -8-8h-304a8 8 0 0 0 -8 8v32a8 8 0 0 0 8 8h8v104h-8a8 8 0 0 0 -8 8v32a8 8 0 0 0 8 8h8v80h16v-80h96v40a8 8 0 0 0 8 8h48a8 8 0 0 0 8-8v-40h96v128h16v-128h8a8 8 0 0 0 8-8v-32a8 8 0 0 0 -8-8h-8v-104zm-8-16h-112v-16h112zm-160 16h32v32h-32zm0-16v-16h32v16zm-128-16h112v16h-112zm0 168v-16h112v16zm160-16v16h-32v-16zm0 64h-32v-32h32zm128-48h-112v-16h112zm-16-32h-256v-104h96v40a8 8 0 0 0 8 8h48a8 8 0 0 0 8-8v-40h96z" fill="#362D6C" ></path><path d="m232 16h192v16h-192z"></path><path d="m200 16h16v16h-16z" fill="#362D6C" ></path><path d="m408 168h16v16h-16z" fill="#362D6C"></path><path d="m376 168h16v16h-16z" fill="#362D6C" ></path><path d="m408 328h16v16h-16z" fill="#362D6C" ></path><path d="m376 328h16v16h-16z" fill="#362D6C" ></path></svg>